<svg width="170" height="187" viewBox="0 0 170 187" fill="none" xmlns="http://www.w3.org/2000/svg">
<rect x="2" y="11" width="166" height="166" stroke="black" stroke-width="4"/>
<path d="M105.784 124C100.408 124 95.6293 122.037 91.448 118.112C87.2667 114.101 83.6827 108.683 80.696 101.856C78.9893 108.597 76.2587 113.632 72.504 116.96C68.7493 120.203 64.6107 121.824 60.088 121.824C53.688 121.824 48.952 116.32 45.88 105.312C42.8933 94.304 41.4 81.12 41.4 65.76C41.4 61.3227 41.7413 57.824 42.424 55.264C43.1067 52.6187 44.3867 51.296 46.264 51.296C47.032 51.296 47.6293 52.7467 48.056 55.648C48.568 58.5493 48.824 62.2187 48.824 66.656C48.824 98.5707 52.92 114.528 61.112 114.528C64.184 114.528 66.7867 113.675 68.92 111.968C71.0533 110.261 73.0587 107.488 74.936 103.648C75.8747 101.344 76.344 97.5467 76.344 92.256L76.216 84.192C76.6427 83.424 77.4107 83.04 78.52 83.04C79.288 83.04 80.0133 83.2533 80.696 83.68C81.464 84.0213 81.976 84.6187 82.232 85.472C82.8293 89.9947 84.024 94.6027 85.816 99.296C87.6933 103.904 90.168 107.829 93.24 111.072C96.3973 114.229 100.109 115.808 104.376 115.808C110.264 115.808 114.445 114.528 116.92 111.968C119.395 109.323 120.632 105.781 120.632 101.344C120.632 91.7013 119.949 83.9787 118.584 78.176C117.304 72.288 115.597 66.7413 113.464 61.536C112.525 59.0613 111.843 57.2267 111.416 56.032C111.075 54.8373 110.904 53.6 110.904 52.32C111.501 50.9547 112.312 50.272 113.336 50.272C115.213 50.272 117.261 52.5333 119.48 57.056C121.784 61.5787 123.747 67.68 125.368 75.36C126.989 82.9547 127.8 91.1467 127.8 99.936C127.8 104.8 126.776 109.067 124.728 112.736C122.765 116.32 120.077 119.093 116.664 121.056C113.336 123.019 109.709 124 105.784 124Z" fill="black"/>
</svg>
